# xmcd
#
# Track frame offsets:
#	150
#	14035
#	27502
#	42900
#	58850
#	75392
#	91500
#	108932
#	125485
#
# Disc length: 1961
#
# Revision: 5
# Processed by: cddbd v1.5.1PL0 Copyright (c) Steve Scherf et al.
# Submitted via: ExactAudioCopy v0.90b4
# Normalized: r3:TDELIM( - ),TSWAP
#
DISCID=6a07a709
DTITLE=Pam Tillis, Lorrie Morgan and Carlene Carter - Kraft Country Tour '96
DYEAR=1900
DGENRE=Country
TTITLE0=Carlene Carter - One Love
TTITLE1=Pam Tillis - Ancient History
TTITLE2=Lorrie Morgan - In Tears
TTITLE3=Pam Tillis - Let That Pony Run
TTITLE4=Carlene Carter - Unbreakable Heart
TTITLE5=Lorrie Morgan - Five Minutes
TTITLE6=Pam Tillis - Till All The Lonely's Gone
TTITLE7=Carlene Carter - I Fell In Love
TTITLE8=Lorrie Morgan - Evening Up The Odds
EXTD=
EXTT0=
EXTT1=
EXTT2=
EXTT3=
EXTT4=
EXTT5=
EXTT6=
EXTT7=
EXTT8=
PLAYORDER=
